<svg width="54" height="54" viewBox="0 0 54 54" fill="none" xmlns="http://www.w3.org/2000/svg">
<mask id="path-1-inside-1_52_12" fill="white">
<path d="M27.0005 38.7641C24.4653 35.583 22.9747 32.7946 22.4805 30.409C20.2154 21.5698 33.7917 21.5698 31.5266 30.409C30.9792 32.8448 29.4886 35.6322 27.0066 38.7641H27.0005ZM40.8771 46.1198C36.6524 47.9589 32.4728 45.0269 28.8939 41.0503C39.3303 27.9853 33.5255 20.9611 27.0005 20.9611C21.484 20.9611 18.4466 25.6328 19.6399 31.0559C20.3359 33.9879 22.1741 37.3227 25.1071 41.0503C21.8396 44.6713 19.0251 46.3427 16.5542 46.5667C11.5319 47.3131 7.60343 42.4424 9.39237 37.4171C10.9091 33.4837 20.6142 14.196 21.031 13.1534C22.6131 10.133 23.5984 7.38782 26.9955 7.38782C30.2439 7.38782 31.3549 9.99339 33.0594 13.4015C36.6755 20.495 42.0343 31.2287 44.5946 37.4171C45.9175 40.7389 44.457 44.5779 40.8771 46.1198ZM45.5981 32.4471C32.6526 4.89475 31.9354 4.5 27.0005 4.5C22.4282 4.5 20.4846 7.68112 18.4968 11.8115C7.83345 33.1371 6.79986 36.1595 6.71047 36.4227C4.17722 43.3866 9.39639 49.4998 15.7134 49.4998C17.8941 49.4998 21.8015 48.8911 27.0005 43.2319C32.8947 49.6384 37.1717 49.4998 38.2876 49.4998C44.6047 49.5048 49.8238 43.3866 47.2886 36.4227C47.2906 36.032 45.5991 32.5154 45.5991 32.4471H45.5981Z"/>
</mask>
<path d="M27.0005 38.7641L15.2702 48.1128L19.7741 53.7641H27.0005V38.7641ZM22.4805 30.409L37.1686 27.3663L37.0977 27.0241L37.011 26.6856L22.4805 30.409ZM31.5266 30.409L16.9961 26.6856L16.9407 26.902L16.8917 27.1199L31.5266 30.409ZM27.0066 38.7641V53.7641H34.2584L38.7625 48.0806L27.0066 38.7641ZM40.8771 46.1198L34.9436 32.3432L34.9167 32.3548L34.8899 32.3665L40.8771 46.1198ZM28.8939 41.0503L17.1741 31.6884L9.23402 41.6283L17.7444 51.0846L28.8939 41.0503ZM19.6399 31.0559L4.99032 34.2794L5.01692 34.4003L5.04552 34.5207L19.6399 31.0559ZM25.1071 41.0503L36.2435 51.0992L44.7144 41.7117L36.8954 31.7747L25.1071 41.0503ZM16.5542 46.5667L15.2 31.628L14.7732 31.6667L14.3494 31.7297L16.5542 46.5667ZM9.39237 37.4171L-4.6032 32.0205L-4.67345 32.2026L-4.73893 32.3866L9.39237 37.4171ZM21.031 13.1534L7.74339 6.19364L7.38762 6.87289L7.10296 7.58487L21.031 13.1534ZM33.0594 13.4015L19.6438 20.1113L19.6695 20.1627L19.6957 20.214L33.0594 13.4015ZM44.5946 37.4171L58.5302 31.8673L58.4933 31.7747L58.4552 31.6826L44.5946 37.4171ZM45.5981 32.4471L32.022 38.8258L36.0726 47.4471H45.5981V32.4471ZM18.4968 11.8115L31.9131 18.5199L31.9638 18.4185L32.0129 18.3164L18.4968 11.8115ZM6.71047 36.4227L20.8068 41.5505L20.8617 41.3995L20.9134 41.2474L6.71047 36.4227ZM27.0005 43.2319L38.0393 33.0759L26.9925 21.069L15.9545 33.0838L27.0005 43.2319ZM38.2876 49.4998L38.2996 34.4998H38.2876V49.4998ZM47.2886 36.4227L32.2888 36.3456L32.275 39.0308L33.1936 41.5541L47.2886 36.4227ZM45.5991 32.4471H60.5991V17.4471H45.5991V32.4471ZM38.7309 29.4154C37.8819 28.3501 37.412 27.6029 37.177 27.1672C36.9336 26.7159 37.0516 26.8016 37.1686 27.3663L7.79232 33.4518C8.97033 39.1383 12.0706 44.0981 15.2702 48.1128L38.7309 29.4154ZM37.011 26.6856C37.3937 28.179 37.5308 31.7322 34.7899 35.028C32.3969 37.9056 29.2697 38.7796 27.0035 38.7796C24.7374 38.7796 21.6102 37.9056 19.2172 35.028C16.4763 31.7322 16.6134 28.179 16.9961 26.6856L46.0571 34.1325C47.5724 28.2194 46.8619 21.3515 42.2832 15.8458C38.0525 10.7585 32.0975 8.77959 27.0035 8.77959C21.9096 8.77959 15.9546 10.7585 11.7238 15.8458C7.14522 21.3515 6.43473 28.2194 7.94995 34.1325L37.011 26.6856ZM16.8917 27.1199C16.982 26.7181 17.0449 26.7323 16.7904 27.204C16.5409 27.6665 16.0704 28.4131 15.2506 29.4476L38.7625 48.0806C41.9526 44.0553 44.9227 39.2105 46.1616 33.6981L16.8917 27.1199ZM27.0066 23.7641H27.0005V53.7641H27.0066V23.7641ZM34.8899 32.3665C36.1037 31.8381 37.4948 31.603 38.851 31.705C40.1164 31.8002 40.9618 32.1565 41.2984 32.3231C41.617 32.4808 41.6203 32.5363 41.316 32.2814C41.0248 32.0374 40.5982 31.6323 40.0435 31.0159L17.7444 51.0846C20.0571 53.6543 23.4937 56.9837 27.9883 59.2088C32.9182 61.6494 39.7321 62.978 46.8644 59.8731L34.8899 32.3665ZM40.6138 50.4121C46.9912 42.4284 51.6692 32.3355 48.7374 22.0093C45.5444 10.7636 35.3863 5.96107 27.0005 5.96107V35.9611C26.0066 35.9611 24.6375 35.7009 23.2172 34.7574C21.6672 33.7279 20.4158 32.0971 19.8781 30.2032C19.3706 28.4159 19.7718 27.4018 19.6704 27.7099C19.5535 28.0652 19.0048 29.3966 17.1741 31.6884L40.6138 50.4121ZM27.0005 5.96107C19.6735 5.96107 12.8235 9.25504 8.53962 15.3386C4.44081 21.1594 3.6386 28.1364 4.99032 34.2794L34.2894 27.8324C34.4478 28.5523 34.5677 30.4819 33.0684 32.6111C31.3841 35.003 28.8111 35.9611 27.0005 35.9611V5.96107ZM5.04552 34.5207C6.45931 40.4758 9.76789 45.813 13.3189 50.3259L36.8954 31.7747C35.8137 30.4 35.1167 29.3266 34.6885 28.5454C34.2532 27.7511 34.2005 27.449 34.2342 27.591L5.04552 34.5207ZM13.9708 31.0013C13.4815 31.5435 13.1033 31.9078 12.8396 32.1395C12.5745 32.3723 12.4649 32.4362 12.5153 32.4043C12.6119 32.3432 13.5475 31.7778 15.2 31.628L17.9084 61.5055C26.0065 60.7714 32.0724 55.7216 36.2435 51.0992L13.9708 31.0013ZM14.3494 31.7297C21.2481 30.7045 25.2835 37.5043 23.5237 42.4477L-4.73893 32.3866C-10.0766 47.3806 1.81563 63.9216 18.759 61.4038L14.3494 31.7297ZM23.3879 42.8138C23.3826 42.8275 23.4233 42.7231 23.5382 42.4572C23.6457 42.2084 23.7883 41.8871 23.9687 41.4898C24.3304 40.6933 24.795 39.6988 25.3407 38.5502C26.4306 36.2563 27.767 33.5092 29.0936 30.8023C30.421 28.0937 31.7034 25.4971 32.7087 23.4541C33.4514 21.9448 34.5718 19.6907 34.9591 18.722L7.10296 7.58487C7.28183 7.13747 7.03279 7.68528 5.79113 10.2086C4.81211 12.1982 3.49526 14.8648 2.15474 17.6001C-0.326179 22.6623 -3.54139 29.2668 -4.6032 32.0205L23.3879 42.8138ZM34.3187 20.1132C34.5715 19.6306 34.8149 19.1483 34.9754 18.8324C35.1591 18.4709 35.2669 18.262 35.3546 18.0994C35.5587 17.721 35.4082 18.0656 34.951 18.6255C34.4238 19.2711 33.3724 20.3537 31.6892 21.2156C29.9456 22.1083 28.2603 22.3878 26.9955 22.3878V-7.61218C24.0322 -7.61218 20.9498 -6.98949 18.0166 -5.48766C15.1437 -4.01669 13.1102 -2.05907 11.7142 -0.349545C10.3883 1.27414 9.48255 2.87138 8.95081 3.85718C8.67058 4.3767 8.4153 4.87784 8.22897 5.24462C8.01951 5.65693 7.88611 5.92117 7.74339 6.19364L34.3187 20.1132ZM26.9955 22.3878C25.7066 22.3878 24.0255 22.1053 22.2977 21.2305C20.6341 20.3881 19.5948 19.3341 19.0779 18.7132C18.6246 18.1686 18.485 17.8472 18.6808 18.2062C18.9066 18.6201 19.0967 19.0173 19.6438 20.1113L46.475 6.69173C46.0706 5.88317 44.4419 2.29143 42.1349 -0.479935C38.8318 -4.44801 33.7241 -7.61218 26.9955 -7.61218V22.3878ZM19.6957 20.214C23.3688 27.4194 28.4419 37.6113 30.7341 43.1517L58.4552 31.6826C55.6267 24.846 49.9822 13.5706 46.4232 6.58906L19.6957 20.214ZM30.6591 42.9669C28.9872 38.7688 31.0375 34.0255 34.9436 32.3432L46.8106 59.8963C57.8765 55.1303 62.8478 42.7089 58.5302 31.8673L30.6591 42.9669ZM59.1742 26.0683C52.9689 12.8614 48.953 4.48122 45.6906 -0.305881C43.9336 -2.88416 41.1696 -6.34202 36.7162 -8.50298C32.2535 -10.6684 27.9607 -10.5 27.0005 -10.5V19.5C28.5078 19.5 26.1553 19.7178 23.6195 18.4874C21.0931 17.2614 20.2428 15.6243 20.9001 16.5887C21.5086 17.4816 22.5941 19.354 24.5208 23.1896C26.3868 26.9044 28.7827 31.9317 32.022 38.8258L59.1742 26.0683ZM27.0005 -10.5C20.5754 -10.5 15.1635 -8.00771 11.15 -3.97683C7.86148 -0.674075 5.95085 3.29064 4.98067 5.3065L32.0129 18.3164C32.4491 17.4101 32.6945 16.956 32.8463 16.7057C32.9915 16.4663 32.8606 16.7369 32.409 17.1905C31.9005 17.7012 31.0563 18.3722 29.8739 18.8732C28.6866 19.3762 27.6478 19.5 27.0005 19.5V-10.5ZM5.0805 5.103C-5.44073 26.1445 -7.00494 30.1629 -7.49245 31.5981L20.9134 41.2474C20.9135 41.2469 20.9101 41.2571 20.9054 41.2706C20.9006 41.2847 20.8949 41.3013 20.8884 41.3198C20.8753 41.3575 20.8624 41.3941 20.8498 41.4289C20.8249 41.498 20.8074 41.5437 20.8006 41.5614C20.7891 41.5912 20.8167 41.5182 20.908 41.302C21.0941 40.8614 21.488 39.9608 22.2454 38.3281C23.7602 35.0631 26.6116 29.1224 31.9131 18.5199L5.0805 5.103ZM-7.38584 31.2949C-13.7946 48.9127 -0.0695319 64.4998 15.7134 64.4998V34.4998C17.4139 34.4998 18.9575 35.3099 19.9443 36.6414C21.1142 38.22 21.2907 40.2202 20.8068 41.5505L-7.38584 31.2949ZM15.7134 64.4998C18.4653 64.4998 22.1792 64.0683 26.4097 62.1537C30.4958 60.3045 34.3627 57.3899 38.0466 53.3801L15.9545 33.0838C14.4393 34.7331 13.753 34.9525 14.0404 34.8224C14.1805 34.759 14.4492 34.6602 14.8247 34.5878C15.2016 34.5151 15.5264 34.4998 15.7134 34.4998V64.4998ZM15.9618 53.388C20.1917 57.9856 24.5603 61.0004 28.9397 62.725C31.111 63.5801 33.1181 64.051 34.8898 64.2884C35.7653 64.4057 36.5332 64.4594 37.1683 64.4829C37.7555 64.5047 38.3038 64.4998 38.2876 64.4998V34.4998C37.9925 34.4998 38.163 34.4992 38.2797 34.5035C38.4443 34.5096 38.6489 34.524 38.8744 34.5542C39.3461 34.6174 39.7064 34.7226 39.9322 34.8115C40.147 34.8961 40.0949 34.9091 39.7929 34.6941C39.4822 34.4729 38.883 33.9929 38.0393 33.0759L15.9618 53.388ZM38.2757 64.4998C54.0811 64.5123 67.7942 48.9002 61.3836 31.2913L33.1936 41.5541C32.7093 40.2238 32.8853 38.2242 34.0548 36.6456C35.0419 35.3132 36.59 34.4984 38.2996 34.4998L38.2757 64.4998ZM62.2884 36.4998C62.2948 35.2584 62.1445 34.2821 62.0633 33.814C61.9692 33.2712 61.8624 32.8288 61.7875 32.5408C61.64 31.9732 61.4869 31.5131 61.3984 31.2563C61.2148 30.7233 61.0242 30.2482 60.9022 29.951C60.6423 29.3178 60.3444 28.6481 60.1169 28.1441C59.8798 27.6187 59.639 27.0965 59.4957 26.7844C59.4579 26.7021 59.4279 26.6365 59.4037 26.5834C59.3918 26.5573 59.3826 26.5372 59.3758 26.522C59.3687 26.5064 59.3657 26.4996 59.3658 26.4999C59.366 26.5003 59.3675 26.5038 59.3703 26.51C59.373 26.5161 59.3776 26.5265 59.3838 26.5406C59.3934 26.5627 59.42 26.6236 59.4553 26.7081C59.477 26.76 59.5684 26.9779 59.6756 27.2683C59.7233 27.3974 59.8448 27.7302 59.9746 28.1655C60.0386 28.3802 60.1533 28.7807 60.2633 29.2917C60.3197 29.5538 60.394 29.9323 60.4576 30.3923C60.5168 30.8198 60.5991 31.5441 60.5991 32.4471H30.5991C30.5991 33.3505 30.6815 34.0755 30.7407 34.5037C30.8044 34.9644 30.8789 35.3438 30.9355 35.6069C31.046 36.1198 31.1612 36.5226 31.226 36.74C31.3575 37.1807 31.4814 37.5207 31.5323 37.6585C31.6459 37.9662 31.7468 38.2078 31.7808 38.2892C31.8652 38.4909 31.9433 38.6661 31.9778 38.7431C32.0592 38.9252 32.1558 39.1359 32.231 39.2999C32.4049 39.6786 32.5867 40.0727 32.7723 40.4838C32.9675 40.9164 33.092 41.2033 33.1487 41.3415C33.185 41.4301 33.1262 41.2943 33.0347 41.0287C32.9923 40.9056 32.8754 40.5611 32.7524 40.0881C32.6898 39.8473 32.5924 39.4468 32.5045 38.9402C32.4296 38.5084 32.2825 37.5626 32.2888 36.3456L62.2884 36.4998ZM45.5991 17.4471H45.5981V47.4471H45.5991V17.4471Z" fill="white" mask="url(#path-1-inside-1_52_12)"/>
</svg>
